<?xml version="1.0" encoding="iso-8859-1"?>
<!-- Generator: Adobe Illustrator 18.1.1, SVG Export Plug-In . SVG Version: 6.00 Build 0)  -->
<svg version="1.1" id="Capa_1" xmlns="http://www.w3.org/2000/svg" xmlns:xlink="http://www.w3.org/1999/xlink" x="0px" y="0px"
	 viewBox="0 0 26.837 26.837" style="enable-background:new 0 0 26.837 26.837;" xml:space="preserve">
<g>
	<g>
		<path style="fill:#030104;" d="M13.418,2c6.525,0,10.813,5.28,10.813,11.806c0,3.687-1.98,5.054-4.929,5.054
			c-0.592,0-1.223-0.055-1.884-0.157c0,0,0,3.224,0,4.15c0,1.486-0.475,1.971-0.96,1.971c-0.507,0-1.024-0.528-1.024-0.996
			c0,0-0.444,0.902-1.042,0.902c-0.298,0-0.635-0.226-0.974-0.902c-0.339,0.677-0.674,0.902-0.972,0.902
			c-0.594,0-1.034-0.902-1.034-0.902c0,0.49-0.512,1.01-1.017,1.01c-0.491-0.001-0.977-0.494-0.977-1.985c0-0.915,0-4.158,0-4.158
			c-0.676,0.11-1.318,0.169-1.92,0.169c-2.935,0-4.893-1.4-4.893-5.058C2.606,7.28,6.894,2,13.418,2 M13.418,0
			C6.113,0,0.605,5.936,0.605,13.806c0,4.458,2.481,7.026,6.813,7.058v1.989c0,3.872,2.673,3.984,2.978,3.984
			c0.413,0,0.812-0.093,1.178-0.258c0.271,0.096,0.563,0.15,0.873,0.15c0.294,0,0.631-0.046,0.981-0.187
			c0.371,0.148,0.711,0.187,0.964,0.187c0.319,0,0.619-0.058,0.896-0.158c0.363,0.161,0.761,0.252,1.17,0.252
			c0.303,0,2.96-0.111,2.96-3.971v-1.993c4.331-0.045,6.813-2.61,6.813-7.054C26.231,5.936,20.723,0,13.418,0L13.418,0z"/>
	</g>
	<path style="fill:#030104;" d="M21.344,11.739c0.03,1.05-0.176,3.99-4.617,3.99c-1.827,0-2.208-0.583-2.208-2.444
		c0-1.15,1.074-2.257,3.059-3.712C20.208,7.644,21.286,9.727,21.344,11.739z"/>
	<path style="fill:#030104;" d="M5.492,11.739c-0.03,1.05,0.176,3.99,4.617,3.99c1.827,0,2.208-0.583,2.208-2.444
		c0-1.15-1.074-2.257-3.059-3.712C6.628,7.644,5.55,9.727,5.492,11.739z"/>
	<path style="fill:#030104;" d="M14.403,17.515c-0.328-0.922-0.984-0.594-0.984,0.109c0-0.672-0.688-0.906-0.906-0.281
		c-0.675,1.929-1.883,3.461-0.273,3.461c0.719,0,1.18-1.023,1.18-1.023s0.219,1.063,1.281,1.063
		C16.059,20.843,15.101,19.473,14.403,17.515z"/>
</g>
<g>
</g>
<g>
</g>
<g>
</g>
<g>
</g>
<g>
</g>
<g>
</g>
<g>
</g>
<g>
</g>
<g>
</g>
<g>
</g>
<g>
</g>
<g>
</g>
<g>
</g>
<g>
</g>
<g>
</g>
</svg>
