<?xml version="1.0" encoding="iso-8859-1"?>
<!-- Generator: Adobe Illustrator 16.0.0, SVG Export Plug-In . SVG Version: 6.00 Build 0)  -->
<!DOCTYPE svg PUBLIC "-//W3C//DTD SVG 1.1//EN" "http://www.w3.org/Graphics/SVG/1.1/DTD/svg11.dtd">
<svg version="1.1" id="Capa_1" xmlns="http://www.w3.org/2000/svg" xmlns:xlink="http://www.w3.org/1999/xlink" x="0px" y="0px"
	 width="28.496px" height="28.496px" viewBox="0 0 28.496 28.496" style="enable-background:new 0 0 28.496 28.496;"
	 xml:space="preserve">
<g>
	<g>
		<path d="M21.175,15.239V5.353H17.71v10.519c0.031-0.009,0.068-0.021,0.092-0.028C18.916,15.382,20.175,15.268,21.175,15.239z"/>
		<path d="M15.979,16.255V1.416h-3.464v14.84c0.513,0.076,1.103,0.133,1.732,0.133C14.875,16.389,15.462,16.332,15.979,16.255z"/>
		<path d="M26.371,11.389h-3.463v3.851c0.959,0.031,2.266,0.154,3.463,0.632V11.389z"/>
		<path d="M10.783,15.875V7.242H7.319v7.996c1.003,0.029,2.278,0.15,3.449,0.632C10.771,15.872,10.779,15.874,10.783,15.875z"/>
		<path d="M5.587,10.654H2.123v5.217c1.197-0.477,2.504-0.602,3.464-0.632V10.654z"/>
		<path d="M22.07,16.229c-0.969,0-2.592,0.002-3.963,0.567c-0.445,0.144-1.998,0.593-3.859,0.593c-1.864,0-3.417-0.451-3.861-0.593
			C9.015,16.23,7.393,16.23,6.425,16.23c-1.923,0-6.425,0-6.425,4.425c0,3.543,2.882,6.425,6.425,6.425
			c3.543,0,6.425-2.882,6.425-6.425c0-0.281-0.019-0.543-0.053-0.79c0.366-0.148,0.838-0.289,1.377-0.289
			c0.602,0,1.14,0.176,1.519,0.344c-0.029,0.23-0.048,0.475-0.048,0.734c0,3.543,2.882,6.425,6.425,6.425s6.426-2.882,6.426-6.425
			C28.496,16.229,23.994,16.229,22.07,16.229z M6.425,25.58c-2.716,0-4.925-2.209-4.925-4.925c0-2.132,1.335-2.925,4.925-2.925
			c3.59,0,4.925,0.793,4.925,2.925C11.35,23.37,9.141,25.58,6.425,25.58z M22.07,25.58c-2.717,0-4.926-2.209-4.926-4.925
			c0-2.132,1.336-2.925,4.926-2.925s4.926,0.793,4.926,2.925C26.996,23.37,24.787,25.58,22.07,25.58z"/>
	</g>
</g>
<g>
</g>
<g>
</g>
<g>
</g>
<g>
</g>
<g>
</g>
<g>
</g>
<g>
</g>
<g>
</g>
<g>
</g>
<g>
</g>
<g>
</g>
<g>
</g>
<g>
</g>
<g>
</g>
<g>
</g>
</svg>
