<?xml version="1.0" encoding="iso-8859-1"?>
<!-- Generator: Adobe Illustrator 18.1.1, SVG Export Plug-In . SVG Version: 6.00 Build 0)  -->
<svg version="1.1" id="Capa_1" xmlns="http://www.w3.org/2000/svg" xmlns:xlink="http://www.w3.org/1999/xlink" x="0px" y="0px"
	 viewBox="0 0 58.033 58.033" style="enable-background:new 0 0 58.033 58.033;" xml:space="preserve">
<g>
	<g>
		<path style="fill:#010002;" d="M29.099,9.911c2.733,0,4.954-2.223,4.954-4.956C34.053,2.224,31.832,0,29.099,0
			c-2.732,0-4.954,2.223-4.954,4.955C24.144,7.689,26.367,9.911,29.099,9.911z M29.099,0.747c2.321,0,4.21,1.889,4.21,4.208
			c0,2.32-1.889,4.208-4.21,4.208s-4.208-1.888-4.208-4.208C24.889,2.637,26.778,0.747,29.099,0.747z"/>
		<path style="fill:#010002;" d="M33.26,10.967l-0.98,0.835l-2.271,2.404v-2.162h-1.816v2.04l-2.307-2.282L25,11.048
			c-2.898,0.295-9.432,5.027-9.432,17.055c-0.324,3.281,4.794,3.25,5.116,0c0.216-2.186,0.146-4.848,0.689-7.059
			c0.185-0.243,0.425-0.522,0.706-0.786l0.599,1.441v8.936l-0.194,10.592l-0.57,13.262c0,0.332,0.068,0.646,0.181,0.937
			l-0.002,0.045c0,1.414,1.146,2.562,2.559,2.562s2.559-1.146,2.559-2.562l1.237-17.438l0.224-2.593h0.623l0.888,10.324l0.636,8.965
			c0,0.39,0.096,0.752,0.25,1.082c0.26,1.142,1.272,1.983,2.489,1.983c1.412,0,2.558-1.146,2.558-2.557L35.55,41.973l-0.196-10.592
			v-8.935l0.854-2.051c1.059,2.394,0.877,5.785,1.143,8.451c0.322,3.251,5.438,3.283,5.115,0
			C42.198,13.603,35.813,11.101,33.26,10.967z"/>
		<path style="fill:#010002;" d="M28.858,6.952c-0.312,0-0.537,0.233-0.537,0.565c0,0.313,0.213,0.554,0.527,0.554
			c0.332,0,0.539-0.241,0.539-0.554C29.388,7.184,29.17,6.952,28.858,6.952z"/>
		<path style="fill:#010002;" d="M28.83,2.488c0.565,0.009,0.85,0.313,0.85,0.769c0,0.403-0.223,0.752-0.625,1.226
			C28.608,5.019,28.447,5.548,28.5,6.03l0.019,0.233h0.697L29.208,6.03c-0.027-0.456,0.116-0.85,0.509-1.316
			c0.43-0.51,0.768-0.949,0.768-1.556c0-0.68-0.462-1.315-1.492-1.315c-0.474,0-0.984,0.144-1.279,0.358l0.216,0.564
			C28.15,2.595,28.51,2.488,28.83,2.488z"/>
	</g>
</g>
<g>
</g>
<g>
</g>
<g>
</g>
<g>
</g>
<g>
</g>
<g>
</g>
<g>
</g>
<g>
</g>
<g>
</g>
<g>
</g>
<g>
</g>
<g>
</g>
<g>
</g>
<g>
</g>
<g>
</g>
</svg>
