<?xml version="1.0" encoding="utf-8"?>
<!-- Generator: Adobe Illustrator 18.0.0, SVG Export Plug-In . SVG Version: 6.00 Build 0)  -->
<!DOCTYPE svg PUBLIC "-//W3C//DTD SVG 1.1//EN" "http://www.w3.org/Graphics/SVG/1.1/DTD/svg11.dtd">
<svg version="1.1" xmlns="http://www.w3.org/2000/svg" xmlns:xlink="http://www.w3.org/1999/xlink" x="0px" y="0px"
	 viewBox="0 0 102 102" enable-background="new 0 0 102 102" xml:space="preserve">
<g id="Слой_1" display="none">
	<rect x="-56.2" y="1.1" display="inline" fill="#F26726" width="17.3" height="17.3"/>
	<rect x="-56.2" y="21.1" display="inline" fill="#FAED9F" width="17.3" height="17.3"/>
	<linearGradient id="SVGID_1_" gradientUnits="userSpaceOnUse" x1="51.5778" y1="21.339" x2="51.5778" y2="84.32">
		<stop  offset="0" style="stop-color:#F26726"/>
		<stop  offset="0.2312" style="stop-color:#F26B29"/>
		<stop  offset="0.4464" style="stop-color:#F27632"/>
		<stop  offset="0.6553" style="stop-color:#F28940"/>
		<stop  offset="0.859" style="stop-color:#F2A354"/>
		<stop  offset="1" style="stop-color:#F2BA66"/>
	</linearGradient>
	<path display="inline" fill="url(#SVGID_1_)" d="M73.1,42.9c0,11.9-21.5,41.4-21.5,41.4S30.1,54.8,30.1,42.9s9.6-21.6,21.5-21.6
		S73.1,31,73.1,42.9z"/>
	<linearGradient id="SVGID_2_" gradientUnits="userSpaceOnUse" x1="51.5778" y1="27.1564" x2="51.5778" y2="54.8775">
		<stop  offset="0" style="stop-color:#FFFFFF"/>
		<stop  offset="1" style="stop-color:#C9C497"/>
	</linearGradient>
	<ellipse display="inline" fill="url(#SVGID_2_)" cx="51.6" cy="41" rx="14.4" ry="13.9"/>
	<linearGradient id="SVGID_3_" gradientUnits="userSpaceOnUse" x1="51.5778" y1="54.233" x2="51.5778" y2="27.8009">
		<stop  offset="0" style="stop-color:#FFFFFF"/>
		<stop  offset="1" style="stop-color:#E6E6E6"/>
	</linearGradient>
	<ellipse display="inline" fill="url(#SVGID_3_)" cx="51.6" cy="41" rx="13.7" ry="13.2"/>
	<g display="inline">
		<path fill="#666666" d="M51.9,34.2c0.8,0,1.6,0.1,2.2,0.3c0.6,0.2,1.1,0.5,1.5,0.8c0.4,0.4,0.7,0.8,0.9,1.3c0.2,0.5,0.3,1,0.3,1.6
			c0,0.6-0.1,1.2-0.3,1.7c-0.2,0.5-0.5,1-0.9,1.3c-0.4,0.4-0.9,0.7-1.5,0.9c-0.6,0.2-1.3,0.3-2.2,0.3h-1.8v4.5h-2.4V34.2H51.9z
			 M51.9,40.6c0.4,0,0.8-0.1,1.1-0.2c0.3-0.1,0.6-0.3,0.8-0.5c0.2-0.2,0.4-0.4,0.5-0.7c0.1-0.3,0.2-0.6,0.2-1c0-0.3-0.1-0.6-0.2-0.9
			c-0.1-0.3-0.3-0.5-0.5-0.7c-0.2-0.2-0.5-0.3-0.8-0.4c-0.3-0.1-0.7-0.2-1.1-0.2h-1.8v4.6H51.9z"/>
	</g>
	<g display="inline">
		<defs>
			<path id="SVGID_4_" d="M73.1,42.9c0,11.9-21.5,41.4-21.5,41.4S30.1,54.8,30.1,42.9s9.6-21.6,21.5-21.6S73.1,31,73.1,42.9z"/>
		</defs>
		<clipPath id="SVGID_5_">
			<use xlink:href="#SVGID_4_"  overflow="visible"/>
		</clipPath>
		
			<linearGradient id="SVGID_6_" gradientUnits="userSpaceOnUse" x1="16.5516" y1="54.2147" x2="16.5516" y2="-3.2087" gradientTransform="matrix(0.7071 -0.7071 0.432 0.432 13.2918 42.4293)">
			<stop  offset="0" style="stop-color:#FFFFFF;stop-opacity:0.1"/>
			<stop  offset="1" style="stop-color:#E6E6E6;stop-opacity:0"/>
		</linearGradient>
		<polygon clip-path="url(#SVGID_5_)" fill="url(#SVGID_6_)" points="78.4,24.1 -4.1,57.1 -1.5,64.3 58.5,4.2 		"/>
	</g>
	<rect x="-56.2" y="41.9" display="inline" fill="#666666" width="17.3" height="17.3"/>
</g>
<g id="Слой_2" display="none">
	<path display="inline" fill="#FAED9F" d="M89.5,67.5L26.7,83.6c-2.1,0.5-4.2-0.7-4.7-2.8l-9.4-36.6c-0.5-2.1,0.7-4.2,2.8-4.7
		l62.8-16.1c2.1-0.5,4.2,0.7,4.7,2.8l9.4,36.6C92.9,64.8,91.6,66.9,89.5,67.5z"/>
	<path display="inline" fill="#F26726" d="M89.2,66.9L26.8,83c-1.8,0.5-3.7-0.6-4.2-2.5l-9.3-36.3c-0.5-1.8,0.6-3.7,2.5-4.2l62.3-16
		c1.8-0.5,3.7,0.6,4.2,2.5l9.3,36.3C92.1,64.6,91,66.5,89.2,66.9z"/>
	<circle display="inline" fill="#FFD400" cx="79.2" cy="57.6" r="5"/>
	<circle display="inline" fill="#FF0000" cx="72.2" cy="59.4" r="5"/>
	
		<text transform="matrix(0.9685 -0.2489 0.2489 0.9685 26.0336 62.8734)" display="inline" fill="#FAED9F" font-family="'MyriadPro-Regular'" font-size="5.6269">1234 5678 1234 5678</text>
	
		<text transform="matrix(0.9685 -0.2489 0.2489 0.9685 28.5566 72.691)" display="inline" fill="#FAED9F" font-family="'MyriadPro-Regular'" font-size="3.6758">CARD HOLDER</text>
	<g display="inline">
		<defs>
			<path id="SVGID_7_" d="M89.5,67.5L26.7,83.6c-2.1,0.5-4.2-0.7-4.7-2.8l-9.4-36.6c-0.5-2.1,0.7-4.2,2.8-4.7l62.8-16.1
				c2.1-0.5,4.2,0.7,4.7,2.8l9.4,36.6C92.9,64.8,91.6,66.9,89.5,67.5z"/>
		</defs>
		<clipPath id="SVGID_8_">
			<use xlink:href="#SVGID_7_"  overflow="visible"/>
		</clipPath>
		
			<linearGradient id="SVGID_9_" gradientUnits="userSpaceOnUse" x1="-5.8212" y1="9.9343" x2="92.5066" y2="9.9343" gradientTransform="matrix(0.6897 -0.7241 0.5773 0.5499 1.4076 68.2538)">
			<stop  offset="0" style="stop-color:#FFFFFF;stop-opacity:0.2"/>
			<stop  offset="1" style="stop-color:#FFFFFF;stop-opacity:0"/>
		</linearGradient>
		<polygon clip-path="url(#SVGID_8_)" fill="url(#SVGID_9_)" points="84.1,19.3 16.3,90.5 -10.1,65.4 57.8,-5.8 		"/>
	</g>
</g>
<g id="Слой_3" display="none">
	<rect x="13.4" y="67.5" display="inline" fill="#F26726" width="73.7" height="5.2"/>
	<rect x="13.4" y="37.8" display="inline" fill="#F26726" width="11.5" height="35"/>
	<rect x="17.8" y="37.8" display="inline" fill="#F26726" width="11.5" height="35"/>
	<linearGradient id="SVGID_10_" gradientUnits="userSpaceOnUse" x1="17.8207" y1="75.6498" x2="17.8207" y2="72.7833">
		<stop  offset="0" style="stop-color:#F26726"/>
		<stop  offset="1" style="stop-color:#612910"/>
	</linearGradient>
	<rect x="16.4" y="72.8" display="inline" fill="url(#SVGID_10_)" width="2.8" height="2.9"/>
	<linearGradient id="SVGID_11_" gradientUnits="userSpaceOnUse" x1="82.3586" y1="75.6498" x2="82.3586" y2="72.7833">
		<stop  offset="0" style="stop-color:#F26726"/>
		<stop  offset="1" style="stop-color:#612910"/>
	</linearGradient>
	<rect x="81" y="72.8" display="inline" fill="url(#SVGID_11_)" width="2.8" height="2.9"/>
	<rect x="77" y="37.8" display="inline" fill="#F26726" width="10.2" height="35"/>
	<linearGradient id="SVGID_12_" gradientUnits="userSpaceOnUse" x1="35.3778" y1="29.9306" x2="35.3778" y2="60.0285">
		<stop  offset="0" style="stop-color:#FAED9F"/>
		<stop  offset="0.2304" style="stop-color:#F7EA9B"/>
		<stop  offset="0.4475" style="stop-color:#EDE090"/>
		<stop  offset="0.6594" style="stop-color:#DCCF7D"/>
		<stop  offset="0.8668" style="stop-color:#C5B862"/>
		<stop  offset="1" style="stop-color:#B3A64D"/>
	</linearGradient>
	<path display="inline" fill="url(#SVGID_12_)" d="M48.3,60H22.4c-1.1,0-1.9-0.9-1.9-1.9V31.9c0-1.1,0.9-1.9,1.9-1.9h25.9
		c1.1,0,1.9,0.9,1.9,1.9v26.2C50.2,59.2,49.4,60,48.3,60z"/>
	<linearGradient id="SVGID_13_" gradientUnits="userSpaceOnUse" x1="65.404" y1="29.9306" x2="65.404" y2="60.0285">
		<stop  offset="0" style="stop-color:#FAED9F"/>
		<stop  offset="0.2304" style="stop-color:#F7EA9B"/>
		<stop  offset="0.4475" style="stop-color:#EDE090"/>
		<stop  offset="0.6594" style="stop-color:#DCCF7D"/>
		<stop  offset="0.8668" style="stop-color:#C5B862"/>
		<stop  offset="1" style="stop-color:#B3A64D"/>
	</linearGradient>
	<path display="inline" fill="url(#SVGID_13_)" d="M78.3,60H52.5c-1.1,0-1.9-0.9-1.9-1.9V31.9c0-1.1,0.9-1.9,1.9-1.9h25.8
		c1.1,0,1.9,0.9,1.9,1.9v26.2C80.2,59.2,79.4,60,78.3,60z"/>
	<linearGradient id="SVGID_14_" gradientUnits="userSpaceOnUse" x1="35.3778" y1="60.0285" x2="35.3778" y2="65.7594">
		<stop  offset="0" style="stop-color:#B3A64D"/>
		<stop  offset="0.1332" style="stop-color:#C5B862"/>
		<stop  offset="0.3406" style="stop-color:#DCCF7D"/>
		<stop  offset="0.5525" style="stop-color:#EDE090"/>
		<stop  offset="0.7696" style="stop-color:#F7EA9B"/>
		<stop  offset="1" style="stop-color:#FAED9F"/>
	</linearGradient>
	<path display="inline" fill="url(#SVGID_14_)" d="M48.3,65.8H22.4c-1.1,0-1.9-0.9-1.9-1.9V62c0-1.1,0.9-1.9,1.9-1.9h25.9
		c1.1,0,1.9,0.9,1.9,1.9v1.9C50.2,64.9,49.4,65.8,48.3,65.8z"/>
	<linearGradient id="SVGID_15_" gradientUnits="userSpaceOnUse" x1="65.404" y1="60.0285" x2="65.404" y2="65.7594">
		<stop  offset="0" style="stop-color:#B3A64D"/>
		<stop  offset="0.1332" style="stop-color:#C5B862"/>
		<stop  offset="0.3406" style="stop-color:#DCCF7D"/>
		<stop  offset="0.5525" style="stop-color:#EDE090"/>
		<stop  offset="0.7696" style="stop-color:#F7EA9B"/>
		<stop  offset="1" style="stop-color:#FAED9F"/>
	</linearGradient>
	<path display="inline" fill="url(#SVGID_15_)" d="M78.3,65.8H52.5c-1.1,0-1.9-0.9-1.9-1.9V62c0-1.1,0.9-1.9,1.9-1.9h25.8
		c1.1,0,1.9,0.9,1.9,1.9v1.9C80.2,64.9,79.4,65.8,78.3,65.8z"/>
	<linearGradient id="SVGID_16_" gradientUnits="userSpaceOnUse" x1="35.3778" y1="65.7594" x2="35.3778" y2="69.0518">
		<stop  offset="0" style="stop-color:#D9C95D"/>
		<stop  offset="0.3999" style="stop-color:#EADB7E"/>
		<stop  offset="0.7713" style="stop-color:#F6E896"/>
		<stop  offset="1" style="stop-color:#FAED9F"/>
	</linearGradient>
	<path display="inline" fill="url(#SVGID_16_)" d="M48.6,69.1H22.2c-0.9,0-1.6-0.7-1.6-1.6l0,0c0-0.9,0.7-1.6,1.6-1.6h26.4
		c0.9,0,1.6,0.7,1.6,1.6l0,0C50.2,68.3,49.5,69.1,48.6,69.1z"/>
	<linearGradient id="SVGID_17_" gradientUnits="userSpaceOnUse" x1="65.404" y1="65.7594" x2="65.404" y2="69.0518">
		<stop  offset="0" style="stop-color:#D9C95D"/>
		<stop  offset="0.3999" style="stop-color:#EADB7E"/>
		<stop  offset="0.7713" style="stop-color:#F6E896"/>
		<stop  offset="1" style="stop-color:#FAED9F"/>
	</linearGradient>
	<path display="inline" fill="url(#SVGID_17_)" d="M78.6,69.1H52.2c-0.9,0-1.6-0.7-1.6-1.6l0,0c0-0.9,0.7-1.6,1.6-1.6h26.4
		c0.9,0,1.6,0.7,1.6,1.6l0,0C80.2,68.3,79.5,69.1,78.6,69.1z"/>
	<g display="inline">
		<defs>
			<rect id="SVGID_18_" x="13.4" y="31.1" width="75.2" height="46.4"/>
		</defs>
		<clipPath id="SVGID_19_">
			<use xlink:href="#SVGID_18_"  overflow="visible"/>
		</clipPath>
		
			<linearGradient id="SVGID_20_" gradientUnits="userSpaceOnUse" x1="-3.4784" y1="20.4733" x2="67.5758" y2="20.4733" gradientTransform="matrix(1.0367 -0.7159 0.6782 0.9821 -10.1563 36.3493)">
			<stop  offset="0" style="stop-color:#FFFFFF;stop-opacity:0.2"/>
			<stop  offset="1" style="stop-color:#FFFFFF;stop-opacity:0"/>
		</linearGradient>
		<polygon clip-path="url(#SVGID_19_)" fill="url(#SVGID_20_)" points="88.8,29.8 15.1,80.7 -14.9,37.2 58.8,-13.7 		"/>
	</g>
</g>
<g id="Слой_4">
	<rect x="-96.2" y="-3.6" fill="#F26726" width="17.3" height="17.3"/>
	<rect x="-96.2" y="16.4" fill="#FAED9F" width="17.3" height="17.3"/>
	<rect x="-96.2" y="37.3" fill="#666666" width="17.3" height="17.3"/>
	<ellipse fill="#FAED9F" cx="51" cy="72.5" rx="27.1" ry="5.2"/>
	<ellipse fill="#F26726" cx="51" cy="69.9" rx="27.1" ry="5.2"/>
	<ellipse fill="#FAED9F" cx="51" cy="67.8" rx="27.1" ry="5.2"/>
	<ellipse fill="#F26726" cx="51" cy="65.2" rx="27.1" ry="5.2"/>
	<ellipse fill="#FAED9F" cx="51" cy="62.6" rx="27.1" ry="5.2"/>
	<ellipse fill="#F26726" cx="51" cy="60" rx="27.1" ry="5.2"/>
	<ellipse fill="#FAED9F" cx="51" cy="57.8" rx="27.1" ry="5.2"/>
	<ellipse fill="#F26726" cx="51" cy="55.2" rx="27.1" ry="5.2"/>
	<ellipse fill="#FAED9F" cx="51" cy="52.2" rx="27.1" ry="5.2"/>
	<ellipse fill="#F26726" cx="51" cy="49.6" rx="27.1" ry="5.2"/>
	<ellipse fill="#FAED9F" cx="51" cy="47.5" rx="27.1" ry="5.2"/>
	<ellipse fill="#F26726" cx="51" cy="44.9" rx="27.1" ry="5.2"/>
	<ellipse fill="#FAED9F" cx="51" cy="42.3" rx="27.1" ry="5.2"/>
	<ellipse fill="#F26726" cx="51" cy="39.7" rx="27.1" ry="5.2"/>
	<ellipse fill="#FAED9F" cx="51" cy="37.5" rx="27.1" ry="5.2"/>
	<ellipse fill="#F26726" cx="51" cy="34.9" rx="27.1" ry="5.2"/>
	<g>
		<path fill="#FAED9F" d="M46.1,34.6h1.4v-3.4h4.8c0.9,0,1.5,0,1.9,0.1c1.9,0.2,3,1,3,2c0,0.6-0.3,1.1-1,1.6
			c-0.7,0.4-1.9,0.6-3.7,0.6h-3.2v0.6h7.3v0.8h-7.3v1.5h-1.7v-1.5h-1.4v-0.8h1.4v-0.6h-1.4V34.6z M49.1,34.6h3.3c2.2,0,3-0.5,3-1.3
			c0-0.6-0.6-1.1-1.5-1.2c-0.3,0-0.8-0.1-1.6-0.1h-3.2V34.6z"/>
	</g>
	<g>
		<defs>
			<path id="SVGID_21_" d="M77.6,71.5c0,2.9-12.1,5.2-27.1,5.2s-27.1-2.3-27.1-5.2s12.1-5.2,27.1-5.2S77.6,68.6,77.6,71.5z
				 M50.5,63.7c-15,0-27.1,2.3-27.1,5.2c0,2.9,12.1,5.2,27.1,5.2s27.1-2.3,27.1-5.2C77.6,66,65.5,63.7,50.5,63.7z M50.5,61.6
				c-15,0-27.1,2.3-27.1,5.2c0,2.9,12.1,5.2,27.1,5.2s27.1-2.3,27.1-5.2C77.6,63.9,65.5,61.6,50.5,61.6z M50.5,59
				c-15,0-27.1,2.3-27.1,5.2c0,2.9,12.1,5.2,27.1,5.2s27.1-2.3,27.1-5.2C77.6,61.3,65.5,59,50.5,59z M50.5,56.4
				c-15,0-27.1,2.3-27.1,5.2c0,2.9,12.1,5.2,27.1,5.2s27.1-2.3,27.1-5.2C77.6,58.7,65.5,56.4,50.5,56.4z M50.5,53.8
				c-15,0-27.1,2.3-27.1,5.2c0,2.9,12.1,5.2,27.1,5.2s27.1-2.3,27.1-5.2C77.6,56.1,65.5,53.8,50.5,53.8z M50.5,51.6
				c-15,0-27.1,2.3-27.1,5.2c0,2.9,12.1,5.2,27.1,5.2s27.1-2.3,27.1-5.2C77.6,53.9,65.5,51.6,50.5,51.6z M50.5,49
				c-15,0-27.1,2.3-27.1,5.2s12.1,5.2,27.1,5.2s27.1-2.3,27.1-5.2S65.5,49,50.5,49z M50.5,46c-15,0-27.1,2.3-27.1,5.2
				s12.1,5.2,27.1,5.2s27.1-2.3,27.1-5.2S65.5,46,50.5,46z M50.5,43.4c-15,0-27.1,2.3-27.1,5.2s12.1,5.2,27.1,5.2s27.1-2.3,27.1-5.2
				S65.5,43.4,50.5,43.4z M50.5,41.2c-15,0-27.1,2.3-27.1,5.2c0,2.9,12.1,5.2,27.1,5.2s27.1-2.3,27.1-5.2
				C77.6,43.6,65.5,41.2,50.5,41.2z M50.5,38.7c-15,0-27.1,2.3-27.1,5.2c0,2.9,12.1,5.2,27.1,5.2s27.1-2.3,27.1-5.2
				C77.6,41,65.5,38.7,50.5,38.7z M50.5,36.1c-15,0-27.1,2.3-27.1,5.2s12.1,5.2,27.1,5.2s27.1-2.3,27.1-5.2S65.5,36.1,50.5,36.1z
				 M50.5,33.5c-15,0-27.1,2.3-27.1,5.2c0,2.9,12.1,5.2,27.1,5.2s27.1-2.3,27.1-5.2C77.6,35.8,65.5,33.5,50.5,33.5z M50.5,31.3
				c-15,0-27.1,2.3-27.1,5.2c0,2.9,12.1,5.2,27.1,5.2s27.1-2.3,27.1-5.2C77.6,33.6,65.5,31.3,50.5,31.3z M50.5,28.7
				c-15,0-27.1,2.3-27.1,5.2s12.1,5.2,27.1,5.2s27.1-2.3,27.1-5.2S65.5,28.7,50.5,28.7z"/>
		</defs>
		<clipPath id="SVGID_22_">
			<use xlink:href="#SVGID_21_"  overflow="visible"/>
		</clipPath>
		
			<linearGradient id="SVGID_23_" gradientUnits="userSpaceOnUse" x1="40.6427" y1="-17.6313" x2="40.6427" y2="-68.1901" gradientTransform="matrix(0.8164 -0.5775 0.5775 0.8164 29.5252 90.8579)">
			<stop  offset="4.926108e-003" style="stop-color:#FFFFFF;stop-opacity:0.2"/>
			<stop  offset="1" style="stop-color:#FFFFFF;stop-opacity:0"/>
		</linearGradient>
		<polygon clip-path="url(#SVGID_22_)" fill="url(#SVGID_23_)" points="89.4,26.9 15.7,79.1 -13.5,37.8 60.2,-14.4 		"/>
	</g>
</g>
</svg>
