<?xml version="1.0" encoding="utf-8"?>
<!-- Generator: Adobe Illustrator 18.0.0, SVG Export Plug-In . SVG Version: 6.00 Build 0)  -->
<!DOCTYPE svg PUBLIC "-//W3C//DTD SVG 1.1//EN" "http://www.w3.org/Graphics/SVG/1.1/DTD/svg11.dtd">
<svg version="1.1" id="Слой_1" xmlns="http://www.w3.org/2000/svg" xmlns:xlink="http://www.w3.org/1999/xlink" x="0px" y="0px"
	 viewBox="0 0 102 102" enable-background="new 0 0 102 102" xml:space="preserve">
<linearGradient id="SVGID_1_" gradientUnits="userSpaceOnUse" x1="52.1455" y1="83.686" x2="52.1455" y2="20.5183">
	<stop  offset="0" style="stop-color:#F26726"/>
	<stop  offset="0.466" style="stop-color:#EE804D"/>
	<stop  offset="1" style="stop-color:#EA9B76"/>
</linearGradient>
<circle fill="url(#SVGID_1_)" cx="52.1" cy="52.1" r="31.6"/>
<linearGradient id="SVGID_2_" gradientUnits="userSpaceOnUse" x1="52.1455" y1="81.8079" x2="52.1455" y2="22.3965">
	<stop  offset="0" style="stop-color:#FAED9F"/>
	<stop  offset="0.4722" style="stop-color:#FBF1C7"/>
	<stop  offset="1" style="stop-color:#FCF5F0"/>
</linearGradient>
<ellipse fill="url(#SVGID_2_)" cx="52.1" cy="52.1" rx="29.1" ry="29.7"/>
<circle fill="#FAED9F" cx="52.1" cy="52.1" r="22.5"/>
<linearGradient id="SVGID_3_" gradientUnits="userSpaceOnUse" x1="52.1455" y1="74.0923" x2="52.1455" y2="30.1121">
	<stop  offset="0" style="stop-color:#F26726"/>
	<stop  offset="0.466" style="stop-color:#EE804D;stop-opacity:0.767"/>
	<stop  offset="1" style="stop-color:#EA9B76;stop-opacity:0.5"/>
</linearGradient>
<circle fill="url(#SVGID_3_)" cx="52.1" cy="52.1" r="22"/>
<rect x="30.2" y="51.9" fill="#FAED9F" width="3.3" height="0.5"/>
<rect x="70.8" y="51.9" fill="#FAED9F" width="3.3" height="0.5"/>
<g>
	
		<rect x="37.5" y="36.1" transform="matrix(-0.7081 0.7061 -0.7061 -0.7081 91.1551 37.7138)" fill="#FAED9F" width="0.5" height="3.3"/>
	
		<rect x="66.3" y="64.9" transform="matrix(-0.7081 0.7061 -0.7061 -0.7081 160.5637 66.6372)" fill="#FAED9F" width="0.5" height="3.3"/>
</g>
<g>
	
		<rect x="37.5" y="64.8" transform="matrix(0.7061 0.7081 -0.7081 0.7061 58.1566 -7.1913)" fill="#FAED9F" width="0.5" height="3.3"/>
	
		<rect x="66.3" y="36.1" transform="matrix(0.7061 0.7081 -0.7081 0.7061 46.2819 -36.033)" fill="#FAED9F" width="0.5" height="3.3"/>
</g>
<g>
	<rect x="51.9" y="70.8" fill="#FAED9F" width="0.5" height="3.3"/>
	<rect x="51.9" y="30.1" fill="#FAED9F" width="0.5" height="3.3"/>
</g>
<polygon fill="#FF644A" points="52.1,52.1 54.1,53 61.4,32.1 50.1,51.2 "/>
<polygon fill="#85DAFF" points="52.2,51.9 50.2,50.9 42.9,71.8 54.2,52.8 "/>
<circle fill="#FAED9F" cx="52.1" cy="52.1" r="2.2"/>
<g>
	<defs>
		<polygon id="SVGID_4_" points="84,26.3 20.6,77.1 6.3,54.7 62.2,-2 		"/>
	</defs>
	<clipPath id="SVGID_5_">
		<use xlink:href="#SVGID_4_"  overflow="visible"/>
	</clipPath>
	<linearGradient id="SVGID_6_" gradientUnits="userSpaceOnUse" x1="29.7835" y1="30.0017" x2="74.4497" y2="74.6679">
		<stop  offset="0" style="stop-color:#FFFFFF;stop-opacity:0.3"/>
		<stop  offset="0.1452" style="stop-color:#FFFFFF;stop-opacity:0.2564"/>
		<stop  offset="1" style="stop-color:#FFFFFF;stop-opacity:0"/>
	</linearGradient>
	<circle clip-path="url(#SVGID_5_)" fill="url(#SVGID_6_)" cx="52.1" cy="52.3" r="31.6"/>
</g>
</svg>
