<?xml version="1.0" encoding="utf-8"?>
<!-- Generator: Adobe Illustrator 18.0.0, SVG Export Plug-In . SVG Version: 6.00 Build 0)  -->
<!DOCTYPE svg PUBLIC "-//W3C//DTD SVG 1.1//EN" "http://www.w3.org/Graphics/SVG/1.1/DTD/svg11.dtd">
<svg version="1.1" id="Слой_1" xmlns="http://www.w3.org/2000/svg" xmlns:xlink="http://www.w3.org/1999/xlink" x="0px" y="0px"
	 viewBox="0 0 102 102" enable-background="new 0 0 102 102" xml:space="preserve">
<rect x="-162.8" y="-21.8" fill="#F26726" width="17.3" height="17.3"/>
<linearGradient id="SVGID_1_" gradientUnits="userSpaceOnUse" x1="-154.1667" y1="15.5" x2="-154.1667" y2="-1.8333">
	<stop  offset="0" style="stop-color:#F26726"/>
	<stop  offset="1" style="stop-color:#F7931E"/>
</linearGradient>
<rect x="-162.8" y="-1.8" fill="url(#SVGID_1_)" width="17.3" height="17.3"/>
<rect x="-162.8" y="17.7" fill="#606060" width="17.3" height="17.3"/>
<g display="none">
</g>
<g>
	<linearGradient id="SVGID_2_" gradientUnits="userSpaceOnUse" x1="74.5" y1="71" x2="74.5" y2="36">
		<stop  offset="0" style="stop-color:#FAED5C"/>
		<stop  offset="1" style="stop-color:#FAED9F"/>
	</linearGradient>
	<path fill="url(#SVGID_2_)" d="M64.2,36c0,0,11.6,0,16.5,0c4.8,0,6.9,7.8,8.6,12.8C95.4,67.1,94.4,71,84.4,71c-10,0-28.5,0-28.5,0
		L64.2,36z"/>
	<path fill="#FFFFFF" d="M87.3,50.3c-0.2-0.7-0.5-1.3-0.7-1.8c-1.6-3.7-2.9-10-6.6-10c-3.7,0-12.5,0-12.5,0v11.8H87.3z"/>
	<linearGradient id="SVGID_3_" gradientUnits="userSpaceOnUse" x1="38" y1="71" x2="38" y2="29">
		<stop  offset="0" style="stop-color:#F26726"/>
		<stop  offset="1" style="stop-color:#F7931E"/>
	</linearGradient>
	<path fill="url(#SVGID_3_)" d="M64,67.1c0,1.9-1.3,3.9-3.2,3.9H15.3c-1.9,0-3.3-2-3.3-3.9V32.5c0-1.9,1.4-3.5,3.3-3.5h45.6
		c1.9,0,3.2,1.6,3.2,3.5V67.1z"/>
	<path fill="#6F6F7D" d="M11.9,68c0.1,1.8,1.6,3.3,3.4,3.3h74.2c1.9,0,3.4-1.5,3.4-3.3H11.9z"/>
	<g>
		<ellipse fill="#494D54" cx="27.9" cy="70.4" rx="8.7" ry="8.7"/>
		<ellipse fill="#A9A9B1" cx="27.9" cy="70.4" rx="4.9" ry="5"/>
		<ellipse fill="#C6C6CB" cx="27.9" cy="70.4" rx="3.5" ry="3.5"/>
	</g>
	<g>
		<ellipse fill="#494D54" cx="77.4" cy="70.4" rx="8.7" ry="8.7"/>
		<ellipse fill="#A9A9B1" cx="77.4" cy="70.4" rx="4.9" ry="5"/>
		<ellipse fill="#C6C6CB" cx="77.4" cy="70.4" rx="3.5" ry="3.5"/>
	</g>
	<g>
		<g>
			<rect x="28" y="38" fill="#FCE36B" width="21" height="19"/>
			<rect x="28" y="38" fill="#FAED9F" width="11" height="19"/>
		</g>
		<rect x="36" y="38" fill="#9C5A15" width="4" height="14"/>
	</g>
</g>
<g>
	<defs>
		<path id="SVGID_4_" d="M64,67.1c0,1.9-1.3,3.9-3.2,3.9H15.3c-1.9,0-3.3-2-3.3-3.9V32.5c0-1.9,1.4-3.5,3.3-3.5h45.6
			c1.9,0,3.2,1.6,3.2,3.5V67.1z"/>
	</defs>
	<clipPath id="SVGID_5_">
		<use xlink:href="#SVGID_4_"  overflow="visible"/>
	</clipPath>
	
		<linearGradient id="SVGID_6_" gradientUnits="userSpaceOnUse" x1="22.289" y1="49.0203" x2="22.289" y2="-34.8308" gradientTransform="matrix(0.821 -0.571 0.2777 0.3993 12.5992 40.1452)">
		<stop  offset="0" style="stop-color:#FFFFFF;stop-opacity:0.2"/>
		<stop  offset="1" style="stop-color:#FFFFFF;stop-opacity:0"/>
	</linearGradient>
	<polygon clip-path="url(#SVGID_5_)" fill="url(#SVGID_6_)" points="88.6,16.3 0.4,77.7 -22.9,44.2 65.3,-17.2 	"/>
</g>
</svg>
