<?xml version="1.0" encoding="utf-8"?>
<!-- Generator: Adobe Illustrator 18.0.0, SVG Export Plug-In . SVG Version: 6.00 Build 0)  -->
<!DOCTYPE svg PUBLIC "-//W3C//DTD SVG 1.1//EN" "http://www.w3.org/Graphics/SVG/1.1/DTD/svg11.dtd">
<svg version="1.1" xmlns="http://www.w3.org/2000/svg" xmlns:xlink="http://www.w3.org/1999/xlink" x="0px" y="0px"
	 viewBox="0 0 102 102" enable-background="new 0 0 102 102" xml:space="preserve">
<g id="Слой_1" display="none">
	<rect x="-56.2" y="1.1" display="inline" fill="#F26726" width="17.3" height="17.3"/>
	<rect x="-56.2" y="21.1" display="inline" fill="#FAED9F" width="17.3" height="17.3"/>
	<linearGradient id="SVGID_1_" gradientUnits="userSpaceOnUse" x1="51.5778" y1="21.339" x2="51.5778" y2="84.32">
		<stop  offset="0" style="stop-color:#F26726"/>
		<stop  offset="0.2312" style="stop-color:#F26B29"/>
		<stop  offset="0.4464" style="stop-color:#F27632"/>
		<stop  offset="0.6553" style="stop-color:#F28940"/>
		<stop  offset="0.859" style="stop-color:#F2A354"/>
		<stop  offset="1" style="stop-color:#F2BA66"/>
	</linearGradient>
	<path display="inline" fill="url(#SVGID_1_)" d="M73.1,42.9c0,11.9-21.5,41.4-21.5,41.4S30.1,54.8,30.1,42.9s9.6-21.6,21.5-21.6
		S73.1,31,73.1,42.9z"/>
	<linearGradient id="SVGID_2_" gradientUnits="userSpaceOnUse" x1="51.5778" y1="27.1564" x2="51.5778" y2="54.8775">
		<stop  offset="0" style="stop-color:#FFFFFF"/>
		<stop  offset="1" style="stop-color:#C9C497"/>
	</linearGradient>
	<ellipse display="inline" fill="url(#SVGID_2_)" cx="51.6" cy="41" rx="14.4" ry="13.9"/>
	<linearGradient id="SVGID_3_" gradientUnits="userSpaceOnUse" x1="51.5778" y1="54.233" x2="51.5778" y2="27.8009">
		<stop  offset="0" style="stop-color:#FFFFFF"/>
		<stop  offset="1" style="stop-color:#E6E6E6"/>
	</linearGradient>
	<ellipse display="inline" fill="url(#SVGID_3_)" cx="51.6" cy="41" rx="13.7" ry="13.2"/>
	<g display="inline">
		<path fill="#666666" d="M51.9,34.2c0.8,0,1.6,0.1,2.2,0.3c0.6,0.2,1.1,0.5,1.5,0.8c0.4,0.4,0.7,0.8,0.9,1.3c0.2,0.5,0.3,1,0.3,1.6
			c0,0.6-0.1,1.2-0.3,1.7c-0.2,0.5-0.5,1-0.9,1.3c-0.4,0.4-0.9,0.7-1.5,0.9c-0.6,0.2-1.3,0.3-2.2,0.3h-1.8v4.5h-2.4V34.2H51.9z
			 M51.9,40.6c0.4,0,0.8-0.1,1.1-0.2c0.3-0.1,0.6-0.3,0.8-0.5c0.2-0.2,0.4-0.4,0.5-0.7c0.1-0.3,0.2-0.6,0.2-1c0-0.3-0.1-0.6-0.2-0.9
			c-0.1-0.3-0.3-0.5-0.5-0.7c-0.2-0.2-0.5-0.3-0.8-0.4c-0.3-0.1-0.7-0.2-1.1-0.2h-1.8v4.6H51.9z"/>
	</g>
	<g display="inline">
		<defs>
			<path id="SVGID_4_" d="M73.1,42.9c0,11.9-21.5,41.4-21.5,41.4S30.1,54.8,30.1,42.9s9.6-21.6,21.5-21.6S73.1,31,73.1,42.9z"/>
		</defs>
		<clipPath id="SVGID_5_">
			<use xlink:href="#SVGID_4_"  overflow="visible"/>
		</clipPath>
		
			<linearGradient id="SVGID_6_" gradientUnits="userSpaceOnUse" x1="16.5516" y1="54.2147" x2="16.5516" y2="-3.2087" gradientTransform="matrix(0.7071 -0.7071 0.432 0.432 13.2918 42.4293)">
			<stop  offset="0" style="stop-color:#FFFFFF;stop-opacity:0.1"/>
			<stop  offset="1" style="stop-color:#E6E6E6;stop-opacity:0"/>
		</linearGradient>
		<polygon clip-path="url(#SVGID_5_)" fill="url(#SVGID_6_)" points="78.4,24.1 -4.1,57.1 -1.5,64.3 58.5,4.2 		"/>
	</g>
	<rect x="-56.2" y="41.9" display="inline" fill="#666666" width="17.3" height="17.3"/>
</g>
<g id="Слой_2">
	<rect x="-31.2" y="1.5" fill="#F26726" width="17.3" height="17.3"/>
	<rect x="-31.2" y="21.5" fill="#FAED9F" width="17.3" height="17.3"/>
	<rect x="-31.2" y="42.3" fill="#666666" width="17.3" height="17.3"/>
	<path fill="#FAED9F" d="M89.5,67.5L26.7,83.6c-2.1,0.5-4.2-0.7-4.7-2.8l-9.4-36.6c-0.5-2.1,0.7-4.2,2.8-4.7l62.8-16.1
		c2.1-0.5,4.2,0.7,4.7,2.8l9.4,36.6C92.9,64.8,91.6,66.9,89.5,67.5z"/>
	<path fill="#F26726" d="M89.2,66.9L26.8,83c-1.8,0.5-3.7-0.6-4.2-2.5l-9.3-36.3c-0.5-1.8,0.6-3.7,2.5-4.2l62.3-16
		c1.8-0.5,3.7,0.6,4.2,2.5l9.3,36.3C92.1,64.6,91,66.5,89.2,66.9z"/>
	<circle fill="#FFD400" cx="79.2" cy="57.6" r="5"/>
	<circle fill="#FF0000" cx="72.2" cy="59.4" r="5"/>
	
		<text transform="matrix(0.9685 -0.2489 0.2489 0.9685 26.0336 62.8734)" fill="#FAED9F" font-family="'MyriadPro-Regular'" font-size="5.6269">1234 5678 1234 5678</text>
	
		<text transform="matrix(0.9685 -0.2489 0.2489 0.9685 28.5566 72.691)" fill="#FAED9F" font-family="'MyriadPro-Regular'" font-size="3.6758">CARD HOLDER</text>
	<g>
		<defs>
			<path id="SVGID_7_" d="M89.5,67.5L26.7,83.6c-2.1,0.5-4.2-0.7-4.7-2.8l-9.4-36.6c-0.5-2.1,0.7-4.2,2.8-4.7l62.8-16.1
				c2.1-0.5,4.2,0.7,4.7,2.8l9.4,36.6C92.9,64.8,91.6,66.9,89.5,67.5z"/>
		</defs>
		<clipPath id="SVGID_8_">
			<use xlink:href="#SVGID_7_"  overflow="visible"/>
		</clipPath>
		
			<linearGradient id="SVGID_9_" gradientUnits="userSpaceOnUse" x1="-5.8212" y1="9.9343" x2="92.5066" y2="9.9343" gradientTransform="matrix(0.6897 -0.7241 0.5773 0.5499 1.4076 68.2538)">
			<stop  offset="0" style="stop-color:#FFFFFF;stop-opacity:0.2"/>
			<stop  offset="1" style="stop-color:#FFFFFF;stop-opacity:0"/>
		</linearGradient>
		<polygon clip-path="url(#SVGID_8_)" fill="url(#SVGID_9_)" points="84.1,19.3 16.3,90.5 -10.1,65.4 57.8,-5.8 		"/>
	</g>
</g>
</svg>
