<?xml version="1.0" encoding="utf-8"?>
<!-- Generator: Adobe Illustrator 18.0.0, SVG Export Plug-In . SVG Version: 6.00 Build 0)  -->
<!DOCTYPE svg PUBLIC "-//W3C//DTD SVG 1.1//EN" "http://www.w3.org/Graphics/SVG/1.1/DTD/svg11.dtd">
<svg version="1.1" xmlns="http://www.w3.org/2000/svg" xmlns:xlink="http://www.w3.org/1999/xlink" x="0px" y="0px"
	 viewBox="0 0 743 734" enable-background="new 0 0 743 734" xml:space="preserve">
<g id="Слой_1">
</g>
<g id="Слой_2">
	<path fill="#FF6719" d="M678.7,688.5H61.2c-12.4,0-22.4-10-22.4-22.4V66.5c0-12.4,10-22.4,22.4-22.4h617.6
		c12.4,0,22.4,10,22.4,22.4v599.6C701.2,678.4,691.1,688.5,678.7,688.5z"/>
	<path fill="#FFFFFF" d="M347.3,360.1H73.1c-6.9,0-12.6-5.6-12.6-12.6V81.8c0-6.9,5.6-12.6,12.6-12.6h274.2
		c6.9,0,12.6,5.6,12.6,12.6v265.7C359.8,354.5,354.2,360.1,347.3,360.1z"/>
	<path fill="#FF6719" d="M653.3,650.8H406.2c-6.9,0-12.6-5.6-12.6-12.6V397.6c0-6.9,5.6-12.6,12.6-12.6h247.1
		c6.9,0,12.6,5.6,12.6,12.6v240.6C665.8,645.1,660.2,650.8,653.3,650.8z"/>
	<path fill="#FFFFFF" d="M666.8,360.1H392.6c-6.9,0-12.6-5.6-12.6-12.6V81.8c0-6.9,5.6-12.6,12.6-12.6h274.2
		c6.9,0,12.6,5.6,12.6,12.6v265.7C679.4,354.5,673.7,360.1,666.8,360.1z"/>
	<path fill="#FFFFFF" d="M347.3,663.3H73.1c-6.9,0-12.6-5.6-12.6-12.6V385c0-6.9,5.6-12.6,12.6-12.6h274.2c6.9,0,12.6,5.6,12.6,12.6
		v265.7C359.8,657.7,354.2,663.3,347.3,663.3z"/>
	<path fill="#FFFFFF" d="M666.8,663.3H392.6c-6.9,0-12.6-5.6-12.6-12.6V385c0-6.9,5.6-12.6,12.6-12.6h274.2
		c6.9,0,12.6,5.6,12.6,12.6v265.7C679.4,657.7,673.7,663.3,666.8,663.3z"/>
	<path fill="#FF6719" d="M347.7,355.3H72.6c-4.1,0-7.3-3.3-7.3-7.3V81.4c0-4.1,3.3-7.3,7.3-7.3h275.1c4.1,0,7.3,3.3,7.3,7.3v266.6
		C355.1,352,351.8,355.3,347.7,355.3z"/>
	<path fill="#FF6719" d="M667.3,658.5H392.2c-4.1,0-7.3-3.3-7.3-7.3V384.6c0-4.1,3.3-7.3,7.3-7.3h275.1c4.1,0,7.3,3.3,7.3,7.3v266.6
		C674.6,655.2,671.3,658.5,667.3,658.5z"/>
	<path fill="#FFFFFF" d="M216.1,330.4h-2.3c-0.6,0-1.1-0.5-1.1-1.1V206.4c0-0.6,0.5-1.1,1.1-1.1h2.3c0.6,0,1.1,0.5,1.1,1.1v122.8
		C217.2,329.9,216.8,330.4,216.1,330.4z"/>
	<path fill="#FFFFFF" d="M284.1,210.6h-2.3c-0.6,0-1.1-0.5-1.1-1.1V116c0-0.6,0.5-1.1,1.1-1.1h2.3c0.6,0,1.1,0.5,1.1,1.1v93.5
		C285.2,210.1,284.7,210.6,284.1,210.6z"/>
	<path fill="#FF6719" d="M561.7,299.6h-1.5c-0.6,0-1.1-0.5-1.1-1.1V138.6c0-0.6,0.5-1.1,1.1-1.1h1.5c0.6,0,1.1,0.5,1.1,1.1v159.9
		C562.8,299.1,562.3,299.6,561.7,299.6z"/>
	<path fill="#FF6719" d="M520.6,285.9h-1.5c-0.6,0-1.1-0.5-1.1-1.1V124.8c0-0.6,0.5-1.1,1.1-1.1h1.5c0.6,0,1.1,0.5,1.1,1.1v159.9
		C521.7,285.4,521.3,285.9,520.6,285.9z"/>
	<path fill="#FF6719" d="M479.5,273.7H478c-0.6,0-1.1-0.5-1.1-1.1V112.7c0-0.6,0.5-1.1,1.1-1.1h1.5c0.6,0,1.1,0.5,1.1,1.1v159.9
		C480.6,273.2,480.1,273.7,479.5,273.7z"/>
	<path fill="#FF6719" d="M592.4,302h-1.5c-0.6,0-1.1-0.5-1.1-1.1V121.2c0-0.6,0.5-1.1,1.1-1.1h1.5c0.6,0,1.1,0.5,1.1,1.1v179.7
		C593.5,301.5,593,302,592.4,302z"/>
	<path fill="#FFFFFF" d="M531.2,507.1h-1.3c-0.6,0-1.1-0.5-1.1-1.1V385.9c0-0.6,0.5-1.1,1.1-1.1h1.3c0.6,0,1.1,0.5,1.1,1.1V506
		C532.3,506.6,531.8,507.1,531.2,507.1z"/>
	<path fill="#FFFFFF" d="M530.8,423.2l0.8,1c0.4,0.5,0.3,1.2-0.2,1.6l-40.2,32.7c-0.5,0.4-1.2,0.3-1.6-0.2l-0.8-1
		c-0.4-0.5-0.3-1.2,0.2-1.6l40.2-32.7C529.8,422.6,530.4,422.7,530.8,423.2z"/>
	<path fill="#FFFFFF" d="M530.8,385.2l0.8,1c0.4,0.5,0.3,1.2-0.2,1.6l-40.2,32.7c-0.5,0.4-1.2,0.3-1.6-0.2l-0.8-1
		c-0.4-0.5-0.3-1.2,0.2-1.6l40.2-32.7C529.8,384.7,530.4,384.8,530.8,385.2z"/>
	<path fill="#FFFFFF" d="M490.7,611.3h-1.3c-0.6,0-1.1-0.5-1.1-1.1V418.4c0-0.6,0.5-1.1,1.1-1.1h1.3c0.6,0,1.1,0.5,1.1,1.1v191.8
		C491.8,610.8,491.3,611.3,490.7,611.3z"/>
	<path fill="#FFFFFF" d="M537.1,636.8h-1.3c-0.6,0-1.1-0.5-1.1-1.1v-77.4c0-0.6,0.5-1.1,1.1-1.1h1.3c0.6,0,1.1,0.5,1.1,1.1v77.4
		C538.3,636.4,537.8,636.8,537.1,636.8z"/>
	<path fill="#FFFFFF" d="M570,606.3h-1.3c-0.6,0-1.1-0.5-1.1-1.1v-73c0-0.6,0.5-1.1,1.1-1.1h1.3c0.6,0,1.1,0.5,1.1,1.1v73
		C571.1,605.8,570.6,606.3,570,606.3z"/>
	<path fill="#FF6719" d="M183.3,580.6l-0.4-0.8c-0.3-0.5-0.1-1.2,0.4-1.5l140.5-77c0.5-0.3,1.2-0.1,1.5,0.4l0.4,0.8
		c0.3,0.5,0.1,1.2-0.4,1.5l-140.5,77C184.3,581.4,183.6,581.2,183.3,580.6z"/>
	<path fill="#FF6719" d="M325.5,556.9l-0.9,0c-0.6,0-1.1-0.5-1.1-1.1l0.2-116.9c0-0.6,0.5-1.1,1.1-1.1l0.9,0c0.6,0,1.1,0.5,1.1,1.1
		l-0.2,116.9C326.6,556.4,326.1,556.9,325.5,556.9z"/>
	<path fill="#FF6719" d="M183.6,636.5l-0.9,0c-0.6,0-1.1-0.5-1.1-1.1l0.1-88.9c0-0.6,0.5-1.1,1.1-1.1l0.9,0c0.6,0,1.1,0.5,1.1,1.1
		l-0.1,88.9C184.7,636,184.2,636.5,183.6,636.5z"/>
	<path fill="#FF6719" d="M114.3,616.4l-0.9,0c-0.6,0-1.1-0.5-1.1-1.1l0.1-87.7c0-0.6,0.5-1.1,1.1-1.1l0.9,0c0.6,0,1.1,0.5,1.1,1.1
		l-0.1,87.7C115.4,615.9,114.9,616.4,114.3,616.4z"/>
	<path fill="#FF6719" d="M143.2,535.9l-0.4-0.8c-0.3-0.5-0.1-1.2,0.4-1.5l101.1-54.7c0.5-0.3,1.2-0.1,1.5,0.4l0.4,0.8
		c0.3,0.5,0.1,1.2-0.4,1.5l-101.1,54.7C144.1,536.6,143.5,536.4,143.2,535.9z"/>
	<path fill="#FF6719" d="M562.4,330.9l-1.1-1.1c-0.4-0.4-0.4-1.1,0-1.6l28.9-28.7c0.4-0.4,1.1-0.4,1.6,0l1.1,1.1
		c0.4,0.4,0.4,1.1,0,1.6l-28.9,28.7C563.5,331.3,562.8,331.3,562.4,330.9z"/>
	<path fill="#FFFFFF" d="M138.4,307.2h-2.3c-0.6,0-1.1-0.5-1.1-1.1V183.2c0-0.6,0.5-1.1,1.1-1.1h2.3c0.6,0,1.1,0.5,1.1,1.1V306
		C139.5,306.7,139,307.2,138.4,307.2z"/>
	<path fill="#FFFFFF" d="M213.9,208.3l-77.4-23c-1.4-0.4-1.9-2.1-1-3.2l75.5-91.5c0.5-0.7,1.4-0.9,2.2-0.6l70.6,24.6
		c1.3,0.5,1.6,1.9,1,3.1l-68.8,90C215.6,208.3,214.7,208.6,213.9,208.3z"/>
	<path fill="#FF6719" d="M560.8,139.3l-82.1-26.3c-0.7-0.2-1.7-1.1-1.1-1.4l30.8-18c0.2-0.1,0.5-0.2,0.7-0.1l84.4,26.1v1.7l-32,17.9
		C561.3,139.4,561,139.4,560.8,139.3z"/>
	<polygon fill="#FF6719" points="562.8,332.8 476.9,298.8 476.9,265.4 562.8,298.7 	"/>
	<path fill="#FF6719" d="M324.6,501.3l-78.9-18.6c-0.8-0.2-1.3-0.9-1.3-1.7v-60.4c0-1.1,1-1.9,2.1-1.7l79,18.7
		c0.8,0.2,1.3,0.9,1.3,1.7l-0.1,60.3C326.7,500.7,325.7,501.6,324.6,501.3z"/>
	<path fill="#FF6719" d="M182.2,579.3l-68.7-18.7c-0.7-0.2-1.2-0.8-1.2-1.6v-31.6c0-1.1,1-1.9,2.1-1.6l68.7,19.3
		c0.7,0.2,1.2,0.8,1.2,1.6v31C184.2,578.8,183.2,579.6,182.2,579.3z"/>
	<polygon fill="#FFFFFF" points="536.9,560.5 488.3,534.5 530.6,505.4 571.1,531.5 	"/>
</g>
</svg>
