<?xml version="1.0" encoding="utf-8"?>
<!-- Generator: Adobe Illustrator 18.0.0, SVG Export Plug-In . SVG Version: 6.00 Build 0)  -->
<!DOCTYPE svg PUBLIC "-//W3C//DTD SVG 1.1//EN" "http://www.w3.org/Graphics/SVG/1.1/DTD/svg11.dtd">
<svg version="1.1" id="Слой_1" xmlns="http://www.w3.org/2000/svg" xmlns:xlink="http://www.w3.org/1999/xlink" x="0px" y="0px"
	 viewBox="0 0 102 102" enable-background="new 0 0 102 102" xml:space="preserve">
<rect x="-31.2" y="1.5" fill="#F26726" width="17.3" height="17.3"/>
<rect x="-31.2" y="21.5" fill="#FAED9F" width="17.3" height="17.3"/>
<linearGradient id="SVGID_1_" gradientUnits="userSpaceOnUse" x1="51.5778" y1="21.339" x2="51.5778" y2="84.32">
	<stop  offset="0" style="stop-color:#F26726"/>
	<stop  offset="0.2312" style="stop-color:#F26B29"/>
	<stop  offset="0.4464" style="stop-color:#F27632"/>
	<stop  offset="0.6553" style="stop-color:#F28940"/>
	<stop  offset="0.859" style="stop-color:#F2A354"/>
	<stop  offset="1" style="stop-color:#F2BA66"/>
</linearGradient>
<path fill="url(#SVGID_1_)" d="M73.1,42.9c0,11.9-21.5,41.4-21.5,41.4S30.1,54.8,30.1,42.9s9.6-21.6,21.5-21.6S73.1,31,73.1,42.9z"
	/>
<linearGradient id="SVGID_2_" gradientUnits="userSpaceOnUse" x1="51.5778" y1="27.1564" x2="51.5778" y2="54.8775">
	<stop  offset="0" style="stop-color:#FFFFFF"/>
	<stop  offset="1" style="stop-color:#C9C497"/>
</linearGradient>
<ellipse fill="url(#SVGID_2_)" cx="51.6" cy="41" rx="14.4" ry="13.9"/>
<linearGradient id="SVGID_3_" gradientUnits="userSpaceOnUse" x1="51.5778" y1="54.233" x2="51.5778" y2="27.8009">
	<stop  offset="0" style="stop-color:#FFFFFF"/>
	<stop  offset="1" style="stop-color:#E6E6E6"/>
</linearGradient>
<ellipse fill="url(#SVGID_3_)" cx="51.6" cy="41" rx="13.7" ry="13.2"/>
<g>
	<path fill="#666666" d="M51.9,34.2c0.8,0,1.6,0.1,2.2,0.3c0.6,0.2,1.1,0.5,1.5,0.8c0.4,0.4,0.7,0.8,0.9,1.3c0.2,0.5,0.3,1,0.3,1.6
		c0,0.6-0.1,1.2-0.3,1.7c-0.2,0.5-0.5,1-0.9,1.3c-0.4,0.4-0.9,0.7-1.5,0.9c-0.6,0.2-1.3,0.3-2.2,0.3h-1.8v4.5h-2.4V34.2H51.9z
		 M51.9,40.6c0.4,0,0.8-0.1,1.1-0.2c0.3-0.1,0.6-0.3,0.8-0.5c0.2-0.2,0.4-0.4,0.5-0.7c0.1-0.3,0.2-0.6,0.2-1c0-0.3-0.1-0.6-0.2-0.9
		c-0.1-0.3-0.3-0.5-0.5-0.7c-0.2-0.2-0.5-0.3-0.8-0.4c-0.3-0.1-0.7-0.2-1.1-0.2h-1.8v4.6H51.9z"/>
</g>
<g>
	<defs>
		<path id="SVGID_4_" d="M73.1,42.9c0,11.9-21.5,41.4-21.5,41.4S30.1,54.8,30.1,42.9s9.6-21.6,21.5-21.6S73.1,31,73.1,42.9z"/>
	</defs>
	<clipPath id="SVGID_5_">
		<use xlink:href="#SVGID_4_"  overflow="visible"/>
	</clipPath>
	
		<linearGradient id="SVGID_6_" gradientUnits="userSpaceOnUse" x1="16.5516" y1="54.2147" x2="16.5516" y2="-3.2087" gradientTransform="matrix(0.7071 -0.7071 0.432 0.432 13.2918 42.4293)">
		<stop  offset="0" style="stop-color:#FFFFFF;stop-opacity:0.1"/>
		<stop  offset="1" style="stop-color:#E6E6E6;stop-opacity:0"/>
	</linearGradient>
	<polygon clip-path="url(#SVGID_5_)" fill="url(#SVGID_6_)" points="78.4,24.1 -4.1,57.1 -1.5,64.3 58.5,4.2 	"/>
</g>
</svg>
